<svg xmlns="http://www.w3.org/2000/svg" version="1.1" width="50" height="16" viewBox="0 0 325 104"><path d="M0 104C4.4 94.3 10.3 87 15.8 79 15.3 61.7 12.7 47.6 13.8 30.4 21.4-16.3 80.3-4.1 86.9 32.7c2.2 12.6 0 22.1 2.2 34.1C95.3 78.8 97.5 94.3 104 104zm85.7 0C82 97.8 79.3 91.9 78.1 85.3 63.2 102.1 31.2 108.5 19.2 92.1 16.5 95.8 15 99.9 12.7 104zM71.6 82.5C80.5 73.8 75.1 69.4 68.6 67.3 53.2 64.8 49 54.2 37.6 60.5c-5.6 2.5-20 12.8-14.3 17.6 18.5 14.5 51.7-9 37.4 3.1-7.1 3.6-19.5 8.2-34.3 3.4 10.8 20.2 33.8 4.4 45.3-2.1zM27.8 57.5C21.1 39.6 36.7 33.7 37 52.5 38.3 52 39.3 50.9 42.1 50.5 40 14 14.4 29 23.1 61.7c1.1-1.4 2.7-2.6 4.7-4.2zm45.9 2.5C82.9 19.5 51.1 20.8 50.6 51.7l6.1 2.3c2.4-27.2 18.4-11.7 10.8 4.1 2.6 0.8 4.9 1.9 6.2 1.9zM33.5 49.1c3.1-2.5-3.9-8-2.7-3.2 3.1 2.1 0.8 4.3 2.7 3.2zm33.4 0.7c2.1-3.1-3-9.7-2.3-3.7 2.6 2.1 1 4.1 2.3 3.7zM190.9 55.3 190.9 55.3 190.9 55.3 190.9 55.3 190.9 55.3 190.9 55.3"/><path d="m190.9 55.3c0.1 15.7 13.8 21 14 21-0.1 0.4-2.2 7.5-7.2 14.8-4.3 6.3-8.8 12.6-15.9 12.8-7 0.1-9.2-4.1-17.2-4.1-8 0-10.4 4-17 4.3-6.8 0.3-12-6.9-16.4-13.2-8.9-12.9-15.8-36.5-6.6-52.4 4.6-7.9 12.7-12.9 21.5-13 6.7-0.1 13.1 4.5 17.2 4.5 4.1 0 11.8-5.6 19.9-4.8 3.4 0.1 12.9 1.4 19 10.3-0.5 0.3-11.4 6.6-11.2 19.8M177.8 16.6C181.4 12.2 183.9 6.1 183.2 0 178 0.2 171.6 3.5 167.9 7.9 164.5 11.8 161.6 18 162.4 24c5.8 0.5 11.8-3 15.4-7.4"/><path d="M271 7.9 325 0V47.3L271 47.8V7.9zM325 104 271 96.4 271 56.8 325 56.9 325 104zm-103.7-89.9 40.7-5.5 0 39.2-40.7 0.2 0-33.9zm40.7 81.6-40.7-5.6v-34l40.6 0.3 0 39.3z"/></svg>
