<svg viewBox="0 0 104 104" xmlns="http://www.w3.org/2000/svg" width="16" height="16" version="1.1"><path d="M2.39 99.1C6.38 90.3 12.55 83.66 17.59 76.46c-0.5-15.7-2.8-28.4-1.8-44 6.9-42.33 60.24-31.3 66.2 2.1 2 11.4 0 20 2 30.9 5.63 10.84 11.74 24.83 17.63 33.64zm78.53 0c-3.41-5.6-5.81-10.95-6.88-16.96-13.53 15.21-42.51 21-53.36 6.14-2.48 3.39-3.86 7.08-5.94 10.82zM68.14 79.66c8.02-7.89 3.12-11.92-2.7-13.76-13.95-2.3-17.77-11.91-28.16-6.19-5.08 2.29-18.12 11.6-12.91 15.96 16.8 13.09 46.83-8.16 33.85 2.79-6.4 3.28-17.69 7.45-31.07 3.07 9.81 18.31 30.6 3.96 40.99-1.87zM28.44 57.01c-6.02-16.22 8.11-21.6 8.34-4.54 1.2-0.48 2.11-1.48 4.58-1.79-1.85-33.1-25.01-19.48-17.17 10.14 0.96-1.31 2.46-2.39 4.25-3.82zm41.56 2.27c8.37-36.74-20.44-35.55-20.94-7.56l5.53 2.1c2.19-24.64 16.69-10.61 9.78 3.75 2.39 0.72 4.44 1.72 5.63 1.72zm-36.38-9.9c2.78-2.27-3.5-7.25-2.47-2.91 2.78 1.93 0.71 3.92 2.47 2.91zm30.26 0.63c1.94-2.8-2.75-8.81-2.11-3.31 2.39 1.91 0.91 3.67 2.11 3.31z"/></svg>
