<?xml version="1.0" encoding="UTF-8" standalone="no"?>
<!-- Created with Inkscape (http://www.inkscape.org/) -->
<svg xmlns="http://www.w3.org/2000/svg" version="1.1" width="240" height="270">
<path 
d="m 143,
235 c -11,
-7 -38,
-5 -44,
-4 -6.2,
15 -19.4,
16 -29.8,
12 -14.8,
-6 -27.2,
-6 -42.1,
-13 -4.5,
-2 -6,
-5 -4.7,
-9 2.4,
-7 5.5,
-12 3.5,
-18 -2.2,
-7 -1.3,
-15 8.1,
-18 12.1,
-2 12.5,
-10 18.2,
-12 C 60.3,
125 77.6,
111 88.6,
95.2 88.1,
79.5 85.8,
66.8 86.8,
51.2 87.9,
33.5 102,
21.6 119,
22 c 17,
0.4 32,
17.5 34,
31.3 2,
11.4 0,
20 2,
30.9 4,
17.8 21,
27.8 27,
40.8 7,
15 17,
38 9,
52 6,
2 7,
8 8,
14 1,
8 12,
10 15,
16 2,
4 0,
8 -3,
11 -9,
7 -20,
10 -29,
18 -11,
11 -35,
15 -39,
-1 z M 83.8,
210 C 77,
201 72.8,
192 65,
181 c -2.4,
-3 -4.6,
-4 -7.2,
-4 -6.7,
0 -11,
12 -15.6,
12 -12.4,
2 -13.5,
7 -10.8,
13 4.4,
10 -2.4,
13 -2.5,
19 -0.1,
8 32.6,
12 40.4,
15 25.1,
10 24.8,
-13 14.5,
-26 z m 93.2,
21 c 9,
-8 28,
-13 28,
-21 0,
-8 -9,
-8 -12,
-12 -3,
-5 -3,
-14 -8,
-15 -5,
5 -13,
9 -19,
8 -5,
-2 -6,
-5 -6,
-10 -7,
-2 -9,
2 -8,
11 3,
15 -7,
35 0,
41 9,
8 17,
5 25,
-2 z m -32,
-27 c 3,
-3 -1,
-13 0,
-21 1,
-7 10,
-9 14,
-9 4,
-25 0,
-39 -11,
-51 0,
-17 -13,
-22 -13,
-31.3 C 119,
110 102,
117 93,
93.8 93.4,
109 80.4,
110 80.9,
127 c -7.7,
14 -14.3,
28 -14.4,
43 1,
12 40.5,
18 21.7,
38 3.9,
4 5,
8 8.1,
12 16.7,
6 42.7,
0 48.7,
-16 z M 131,
90.6 c 3,
-1.4 4,
-1.7 4,
-3.7 0,
-6.8 0,
-7.8 -5,
-9.4 -10,
-2.2 -19,
-9.9 -28,
-4.9 -4.4,
2 -17.4,
13 -10.8,
14.9 1.1,
0.2 2.1,
0.7 3.8,
2 4,
2.9 8,
2.6 13,
2.7 9,
0.1 16,
-9.2 22,
-10.5 7,
-0.4 -2,
3.5 -4,
4.8 -8,
6.3 -21,
10.9 -30.5,
6.5 8.5,
16 26.5,
2.7 35.5,
-2.4 z M 96.5,
73.9 C 92.8,
70.2 94,
61.5 98.1,
61.3 c 3.9,
0.1 4.9,
5.2 4.9,
8.2 1,
-0.4 2,
-1 3,
-1.5 0,
-8.5 -1,
-14.7 -7.6,
-14.6 -7.6,
0 -9,
15.5 -5.1,
23.7 0.8,
-1.1 1.7,
-2 3.2,
-3.2 z M 133,
75.8 C 140,
45 116,
46.1 115,
64.3 c 0,
3.9 3,
5 5,
6.4 2,
-21.4 16,
-7.7 9,
3.9 2,
0.6 3,
1.2 4,
1.2 z m -33,
-8.3 c 1,
1.3 1,
-1.9 -1,
-3 -1,
-1.1 -3.3,
-0.6 -1.9,
0.2 0.9,
0.9 1.9,
1.5 2.9,
2.8 z m 28,
-0.9 c 2,
-0.3 0,
-3.3 -1,
-3.8 -3,
-1.5 -1,
1 -1,
1.5 2,
1.6 1,
2.6 2,
2.3 z" />
</svg>
