<svg width="240" height="270"> <path d="M 140.81503,234.7815 C 129.81503,227.7815 105,230 99,231 92.8,246 79.6,247 69.2,243 54.4,237 42,237 27.1,230 c -4.5,-2 -6,-5 -4.7,-9 2.4,-7 5.5,-12 3.5,-18 -2.2,-7 -1.3,-15 8.1,-18 12.1,-2 12.5,-10 18.2,-12 8.1,-48 25.4,-62 36.4,-77.8 -0.5,-15.7 -2.8,-28.4 -1.8,-44 6.901574,-42.3276343 60.23657,-31.295826 66.2,2.1 2,11.4 0,20 2,30.9 9.3112,29.38056 53.40988,58.04802 36,92.8 6,2 7,8 8,14 1,8 12,10 15,16 2,4 0,8 -3,11 -9,7 -20,10 -29,18 -11,11 -37.18497,14.7815 -41.18497,-1.2185 z M 83.8,210 C 75.370969,201.49803 72.510171,179.75035 59.163995,180.20247 51.580179,182.90354 49.581007,191.62196 42.2,191.62196 c -8.467062,2.43699 -10.004055,5.90752 -7.959545,11.03353 2.215035,10.43699 -2.4,12.34451 -2.5,18.34451 -0.1,6.25203 29.104055,9.81503 36.904055,12.81503 C 93.74451,243.81503 94.1,223 83.8,210 z m 93.63699,18.37804 c 9,-8 20.78962,-10.37804 26.47053,-17.06706 -0.57226,-6.43626 -11.18497,-5.37804 -13.52948,-12.437 -3,-5 -0.59654,-13.563 -5.59654,-14.563 -6.19709,5.87 -23.99059,10.82641 -24.7815,-3.31098 -7,-2 -9,2 -8,11 3,15 -9.40346,35.2185 -2.40346,41.2185 9,8 19.84045,2.15954 27.84045,-4.84046 z m -35.05895,-24.81503 c 3,-3 -0.56301,-13.437 0.43699,-21.437 1,-7 9.56301,-15.55489 19.89941,-11.18496 12.36578,-33.8305 -14.27035,-46.39222 -17.6636,-70.06419 -13.52799,15.20999 -42.50782,20.99594 -53.361819,6.13896 -13.814294,24.19693 -24.687695,32.7007 -25.822552,59.78171 -1.381501,8.05796 48.125421,16.83254 29.325421,36.83254 3.625198,27.26125 44.52956,15.52047 47.18615,-0.0671 z M 139.15482,98.404276 c 8.02143,-7.893996 3.12395,-11.92269 -2.69964,-13.758902 -13.9499,-2.299732 -17.77127,-11.912541 -28.16307,-6.189295 -5.08043,2.289299 -18.12433,11.602992 -12.907144,15.962792 16.801794,13.089969 46.827824,-8.161104 33.845204,2.788288 -6.3967,3.278361 -17.69263,7.451261 -31.065202,3.070281 9.814472,18.31439 30.598062,3.96455 40.989852,-1.873164 z M 99.449828,75.752134 c -6.016752,-16.215646 8.112512,-21.595829 8.338392,-4.538023 1.19533,-0.477171 2.10631,-1.477279 4.58122,-1.789396 -1.85366,-33.101933 -25.013696,-19.47823 -17.171211,10.144798 0.956269,-1.312224 2.458594,-2.385862 4.251599,-3.817379 z m 41.559282,2.266569 c 8.36735,-36.742265 -20.4408,-35.55256 -20.9421,-7.558513 l 5.5291,2.096105 c 2.1853,-24.635384 16.69476,-10.605409 9.7786,3.746542 2.39068,0.715758 4.43906,1.715866 5.6344,1.715866 z m -36.3804,-9.901324 c 2.77576,-2.26904 -3.50368,-7.24623 -2.47125,-2.913682 2.78189,1.926683 0.70722,3.922011 2.47125,2.913682 z m 30.26156,0.63245 c 1.93842,-2.796109 -2.75173,-8.805117 -2.10633,-3.312437 2.39067,1.908689 0.91099,3.670317 2.10633,3.312437 z" />
</svg>
